{
	"asset":{
		"version":"2.0",
		"generator":"Maxon Cinema 4D 2025.0.2 (#200000219)"
	},
	"scenes":[{
		"nodes":[0]
	}],
	"nodes":[{
		"name":"Tubo.1",
		"rotation":[-0.7071067690849304,
		0.0,
		0.0,
		-0.7071067690849304],
		"translation":[0.0,
		0.0,
		-2.200000047683716],
		"scale":[1.0,
		1.0,
		1.0],
		"children":[1,
		2]
	},
	{
		"name":"Tubo.1-Mat",
		"mesh":0
	},
	{
		"name":"Tubo.1-Mat.1",
		"mesh":1
	}],
	"meshes":[{
		"name":"Tubo.1-Mat",
		"primitives":[{
			"indices":0,
			"attributes":{
				"POSITION":1,
				"NORMAL":2,
				"TEXCOORD_0":3
			},
			"material":0
		}]
	},
	{
		"name":"Tubo.1-Mat.1",
		"primitives":[{
			"indices":4,
			"attributes":{
				"POSITION":5,
				"NORMAL":6,
				"TEXCOORD_0":7
			},
			"material":1
		}]
	}],
	"accessors":[{
		"bufferView":0,
		"type":"SCALAR",
		"componentType":5123,
		"count":660,
		"byteOffset":0,
		"min":[0],
		"max":[659]
	},
	{
		"bufferView":1,
		"type":"VEC3",
		"componentType":5126,
		"count":660,
		"byteOffset":0,
		"min":[-0.05000000074505806,
		-0.5,
		-0.05000000074505806],
		"max":[0.05000000074505806,
		0.5,
		0.05000000074505806]
	},
	{
		"bufferView":1,
		"type":"VEC3",
		"componentType":5126,
		"count":660,
		"byteOffset":12,
		"min":[-0.9807904958724976,
		0.0,
		-0.9807904958724976],
		"max":[0.9807904958724976,
		0.0,
		0.9807904958724976]
	},
	{
		"bufferView":1,
		"type":"VEC2",
		"componentType":5126,
		"count":660,
		"byteOffset":24,
		"min":[0.0,
		0.0],
		"max":[1.0,
		1.0]
	},
	{
		"bufferView":2,
		"type":"SCALAR",
		"componentType":5123,
		"count":516,
		"byteOffset":0,
		"min":[0],
		"max":[515]
	},
	{
		"bufferView":3,
		"type":"VEC3",
		"componentType":5126,
		"count":516,
		"byteOffset":0,
		"min":[-0.05000000074505806,
		-0.5,
		-0.05000000074505806],
		"max":[0.05000000074505806,
		0.5,
		0.05000000074505806]
	},
	{
		"bufferView":3,
		"type":"VEC3",
		"componentType":5126,
		"count":516,
		"byteOffset":12,
		"min":[-0.9807904958724976,
		-1.0,
		-0.9807904958724976],
		"max":[0.9807904958724976,
		1.0,
		0.9807904958724976]
	},
	{
		"bufferView":3,
		"type":"VEC2",
		"componentType":5126,
		"count":516,
		"byteOffset":24,
		"min":[0.0,
		0.0],
		"max":[0.9375,
		1.0]
	}],
	"bufferViews":[{
		"buffer":0,
		"byteOffset":0,
		"byteLength":1320,
		"target":34963
	},
	{
		"buffer":0,
		"byteOffset":1320,
		"byteLength":21120,
		"target":34962,
		"byteStride":32
	},
	{
		"buffer":1,
		"byteOffset":0,
		"byteLength":1032,
		"target":34963
	},
	{
		"buffer":1,
		"byteOffset":1032,
		"byteLength":16512,
		"target":34962,
		"byteStride":32
	}],
	"buffers":[{
		"uri":"data:application/octet-stream;base64,",
		"byteLength":22440
	},
	{
		"uri":"data:application/octet-stream;base64,",
		"byteLength":17544
	}],
	"materials":[{
		"pbrMetallicRoughness":{
			"baseColorFactor":[0.6117647058823529,
			0.8549019607843135,
			0.0,
			1.0],
			"metallicFactor":0.0,
			"roughnessFactor":0.20000000298023225
		},
		"emissiveFactor":[0.0,
		0.0,
		0.0],
		"alphaMode":"OPAQUE",
		"doubleSided":false,
		"name":"Mat"
	},
	{
		"pbrMetallicRoughness":{
			"baseColorFactor":[0.05341338440039334,
			0.06131421868186488,
			0.835294117647059,
			1.0],
			"metallicFactor":0.0,
			"roughnessFactor":0.20000000298023225
		},
		"emissiveFactor":[0.0,
		0.0,
		0.0],
		"alphaMode":"OPAQUE",
		"doubleSided":false,
		"name":"Mat.1"
	}]
}