{
	"asset":{
		"version":"2.0",
		"generator":"Maxon Cinema 4D 2025.0.2 (#200000219)"
	},
	"scenes":[{
		"nodes":[0]
	}],
	"nodes":[{
		"name":"Subdivisión Superficie",
		"translation":[0.0,
		0.0,
		-2.200000047683716],
		"rotation":[0.0,
		0.0,
		0.0,
		-1.0],
		"scale":[1.0,
		1.0,
		1.0],
		"children":[1]
	},
	{
		"name":"Tubo",
		"scale":[1.0,
		1.0,
		1.0],
		"mesh":0,
		"translation":[0.0,
		0.0,
		-1.100000023841858],
		"rotation":[-0.7071067690849304,
		0.0,
		0.0,
		-0.7071067690849304]
	}],
	"meshes":[{
		"name":"Tubo",
		"primitives":[{
			"attributes":{
				"POSITION":1,
				"NORMAL":2,
				"TEXCOORD_0":3
			},
			"indices":0,
			"material":0
		}]
	}],
	"accessors":[{
		"min":[0],
		"bufferView":0,
		"max":[41495],
		"componentType":5123,
		"type":"SCALAR",
		"count":41496,
		"byteOffset":0
	},
	{
		"min":[-0.03613199666142464,
		-0.419577419757843,
		-0.0482984259724617],
		"bufferView":1,
		"max":[0.03821409493684769,
		0.5021703243255615,
		0.04619399085640907],
		"componentType":5126,
		"type":"VEC3",
		"count":41496,
		"byteOffset":0
	},
	{
		"min":[-0.9999939203262329,
		-1.0,
		-0.9991307258605957],
		"bufferView":1,
		"max":[0.9999939203262329,
		1.0,
		0.9991307258605957],
		"componentType":5126,
		"type":"VEC3",
		"count":41496,
		"byteOffset":12
	},
	{
		"min":[0.125,
		0.0],
		"bufferView":1,
		"max":[0.875,
		1.0],
		"componentType":5126,
		"type":"VEC2",
		"count":41496,
		"byteOffset":24
	}],
	"bufferViews":[{
		"buffer":0,
		"byteOffset":0,
		"byteLength":82992,
		"target":34963
	},
	{
		"buffer":0,
		"byteOffset":82992,
		"byteLength":1327872,
		"target":34962,
		"byteStride":32
	}],
	"buffers":[{
		"uri":"data:application/octet-stream;base64,",
		"byteLength":1410864
	}],
	"materials":[{
		"pbrMetallicRoughness":{
			"baseColorFactor":[0.9640287769784173,
			0.8419647016199989,
			0.5062884943843484,
			1.0],
			"metallicFactor":0.0,
			"roughnessFactor":0.20000000298023225
		},
		"emissiveFactor":[0.0,
		0.0,
		0.0],
		"alphaMode":"OPAQUE",
		"doubleSided":false,
		"name":"Mat.1"
	}]
}