{
	"asset":{
		"version":"2.0",
		"generator":"Maxon Cinema 4D 2025.0.2 (#200000219)"
	},
	"scenes":[{
		"nodes":[0]
	}],
	"nodes":[{
		"name":"Subdivisión Superficie.1",
		"children":[1]
	},
	{
		"name":"Tubo.3",
		"translation":[0.0,
		0.0,
		-3.299999952316284],
		"rotation":[-0.7071067690849304,
		0.0,
		0.0,
		-0.7071067690849304],
		"scale":[1.0,
		1.0,
		1.0],
		"children":[2,
		3]
	},
	{
		"name":"Tubo.3-Mat.2",
		"mesh":0
	},
	{
		"name":"Tubo.3-Mat",
		"mesh":1
	}],
	"meshes":[{
		"name":"Tubo.3-Mat.2",
		"primitives":[{
			"attributes":{
				"POSITION":1,
				"NORMAL":2,
				"TEXCOORD_0":3
			},
			"indices":0,
			"material":0
		}]
	},
	{
		"name":"Tubo.3-Mat",
		"primitives":[{
			"attributes":{
				"POSITION":5,
				"NORMAL":6,
				"TEXCOORD_0":7
			},
			"indices":4,
			"material":1
		}]
	}],
	"accessors":[{
		"min":[0],
		"bufferView":0,
		"max":[11843],
		"componentType":5123,
		"type":"SCALAR",
		"count":11844,
		"byteOffset":0
	},
	{
		"min":[-0.04881061613559723,
		-0.5,
		-0.05000000074505806],
		"bufferView":1,
		"max":[0.05000000074505806,
		0.5,
		0.05000000074505806],
		"componentType":5126,
		"type":"VEC3",
		"count":11844,
		"byteOffset":0
	},
	{
		"min":[-1.0,
		-0.04471994936466217,
		-1.0],
		"bufferView":1,
		"max":[1.0,
		1.0,
		1.0],
		"componentType":5126,
		"type":"VEC3",
		"count":11844,
		"byteOffset":12
	},
	{
		"min":[0.0,
		0.0],
		"bufferView":1,
		"max":[1.0,
		1.0006742477416993],
		"componentType":5126,
		"type":"VEC2",
		"count":11844,
		"byteOffset":24
	},
	{
		"min":[0],
		"bufferView":2,
		"max":[4799],
		"componentType":5123,
		"type":"SCALAR",
		"count":4800,
		"byteOffset":0
	},
	{
		"min":[-0.019134171307086946,
		-0.5,
		-0.04881061613559723],
		"bufferView":3,
		"max":[0.019134171307086946,
		0.5,
		0.04881061613559723],
		"componentType":5126,
		"type":"VEC3",
		"count":4800,
		"byteOffset":0
	},
	{
		"min":[-0.9984387159347534,
		-1.0,
		-0.9999521374702454],
		"bufferView":3,
		"max":[0.9984387159347534,
		1.0,
		0.9997277855873108],
		"componentType":5126,
		"type":"VEC3",
		"count":4800,
		"byteOffset":12
	},
	{
		"min":[0.1875,
		0.0],
		"bufferView":3,
		"max":[0.8125,
		1.0006742477416993],
		"componentType":5126,
		"type":"VEC2",
		"count":4800,
		"byteOffset":24
	}],
	"bufferViews":[{
		"buffer":0,
		"byteOffset":0,
		"byteLength":23688,
		"target":34963
	},
	{
		"buffer":0,
		"byteOffset":23688,
		"byteLength":379008,
		"target":34962,
		"byteStride":32
	},
	{
		"buffer":1,
		"byteOffset":0,
		"byteLength":9600,
		"target":34963
	},
	{
		"buffer":1,
		"byteOffset":9600,
		"byteLength":153600,
		"target":34962,
		"byteStride":32
	}],
	"buffers":[{
		"uri":"data:application/octet-stream;base64,",
		"byteLength":402696
	},
	{
		"uri":"data:application/octet-stream;base64,",
		"byteLength":163200
	}],
	"materials":[{
		"pbrMetallicRoughness":{
			"baseColorFactor":[0.3137254901960785,
			0.019607843137254875,
			0.01960784313725489,
			1.0],
			"metallicFactor":0.0,
			"roughnessFactor":0.20000000298023225
		},
		"emissiveFactor":[0.0,
		0.0,
		0.0],
		"alphaMode":"OPAQUE",
		"doubleSided":false,
		"name":"Mat.2"
	},
	{
		"pbrMetallicRoughness":{
			"baseColorFactor":[0.5568627450980392,
			0.058823529411764618,
			0.05882352941176467,
			1.0],
			"metallicFactor":0.0,
			"roughnessFactor":0.20000000298023225
		},
		"emissiveFactor":[0.0,
		0.0,
		0.0],
		"alphaMode":"OPAQUE",
		"doubleSided":false,
		"name":"Mat"
	}]
}